<?xml version="1.0" encoding="utf-8"?><svg xml:space="preserve" viewBox="0 0 100 100" y="0" x="0" xmlns="http://www.w3.org/2000/svg" id="圖層_1" version="1.1" width="200px" height="200px" xmlns:xlink="http://www.w3.org/1999/xlink" style="width:100%;height:100%;background-size:initial;background-repeat-y:initial;background-repeat-x:initial;background-position-y:initial;background-position-x:initial;background-origin:initial;background-color:initial;background-clip:initial;background-attachment:initial;animation-play-state:paused" ><g class="ldl-scale" style="transform-origin:50% 50%;transform:rotate(0deg) scale(0.8, 0.8);animation-play-state:paused" ><path stroke-miterlimit="10" stroke-width="4" stroke="#333" fill="#f5e6c8" d="M72.903 14.078H15.427c-4.247 0-7.927 3.078-7.927 7.326v29.952c0 4.247 3.679 8.055 7.927 8.055h6.24v14.091c6.611-2.188 11.916-7.48 13.731-14.091h37.505c4.247 0 7.319-3.808 7.319-8.055V21.403c0-4.247-3.072-7.325-7.319-7.325z" style="stroke:rgb(51, 51, 51);fill:rgb(245, 230, 200);animation-play-state:paused" ></path>
<path fill="#a3a3a3" d="M85.852 25.872V51.59c0 6.901-6.101 12.503-13.059 12.503H38.602c-1.074 2.849-2.545 4.611-4.36 6.656.704.214 1.45-.008 2.224-.008h28.455c1.825 7.598 6.685 13.13 14.282 15.329V70.742h3.083c5.772 0 10.213-3.988 10.213-9.759V33.681c.001-4.155-2.848-7.546-6.647-7.809z" style="fill:rgb(163, 163, 163);animation-play-state:paused" ></path>
<g style="animation-play-state:paused" ><circle fill="#7a8f7c" r="4.5" cy="37" cx="23.7" style="fill:rgb(122, 143, 124);animation-play-state:paused" ></circle>
<circle fill="#849b87" r="4.5" cy="37" cx="43.5" style="fill:rgb(132, 155, 135);animation-play-state:paused" ></circle>
<circle fill="#96b099" r="4.5" cy="37" cx="63.3" style="fill:rgb(150, 176, 153);animation-play-state:paused" ></circle></g>
<metadata xmlns:d="https://loading.io/stock/" style="animation-play-state:paused" ><d:name style="animation-play-state:paused" >discussion</d:name>
<d:tags style="animation-play-state:paused" >sending,typing,thread,interview,talk,chitchat,chat,discussion,conversation</d:tags>
<d:license style="animation-play-state:paused" >pro</d:license>
<d:slug style="animation-play-state:paused" >bpwnfg</d:slug></metadata></g><!-- generated by https://loading.io/ --></svg>